<?xml version="1.0" encoding="utf-8"?>
<!-- Generator: Adobe Illustrator 27.0.0, SVG Export Plug-In . SVG Version: 6.00 Build 0)  -->
<svg version="1.1" id="Layer_1" xmlns="http://www.w3.org/2000/svg" xmlns:xlink="http://www.w3.org/1999/xlink" x="0px" y="0px"
	 viewBox="0 0 1080 1080" style="enable-background:new 0 0 1080 1080;" xml:space="preserve">
<style type="text/css">
	.st0{fill:url(#SVGID_1_);}
	.st1{fill:url(#SVGID_00000063610878522268721870000012048474826647990954_);}
	.st2{fill:url(#SVGID_00000114765236222031528590000002256388018264820393_);}
	.st3{fill:url(#SVGID_00000163762221403276458760000012467784752598705808_);}
	.st4{fill:url(#SVGID_00000014621654372341222600000002068070993916293293_);}
	.st5{fill:url(#SVGID_00000168810117600047313190000000118967655396265407_);}
</style>
<g>
	<g>
		<g>
			<linearGradient id="SVGID_1_" gradientUnits="userSpaceOnUse" x1="472.0204" y1="756.8958" x2="914.196" y2="756.8958">
				<stop  offset="0" style="stop-color:#FFFFFF"/>
				<stop  offset="5.027818e-03" style="stop-color:#5EB14A"/>
				<stop  offset="0.2804" style="stop-color:#7CC243"/>
				<stop  offset="0.5117" style="stop-color:#92D400"/>
				<stop  offset="0.7698" style="stop-color:#92D400"/>
				<stop  offset="1" style="stop-color:#C1E8BD"/>
			</linearGradient>
			<path class="st0" d="M801.55,634.97l-9.6,51.76c-0.04,0.23-0.07,0.45-0.08,0.68c-0.19,3.91-3.13,43.02-43.01,46.75
				c-0.19,0.02-0.38,0.03-0.56,0.03l-166.46,0.11c-0.7,0-1.38-0.13-2.02-0.4c-4.04-1.68-18.7-8.43-15.69-16.67
				c0,0,6.94-16.25,29.45-16c21.26,0.24,75.75-3.31,81.74-3.7c0.39-0.03,0.76-0.09,1.13-0.2c3.91-1.16,25.69-8.75,22.69-33.58
				c-0.05-0.42-0.06-0.83-0.01-1.25c0.6-4.84,3.5-38.23-30.52-39.84c-0.16-0.01-0.33-0.01-0.49,0l-91.53,2.87l0,0
				c0,0-77.79,7.08-98.52,91.06c-0.04,0.16-0.09,0.31-0.14,0.47c-1.43,4.03-20.9,61.76,19.82,111.53c0.25,0.31,0.47,0.63,0.64,0.99
				c2.56,5.34,27.51,52.43,114.9,58.76c0.12,0.01,0.23,0.01,0.35,0.02l203.58,2.82c0,0,78.05-0.82,91.43-75.81
				c0.03-0.19,0.06-0.39,0.07-0.59l5.18-68.4c4.73-62.39-44.59-115.62-107.15-115.68h0C804.19,630.67,802.02,632.48,801.55,634.97z"
				/>
			
				<linearGradient id="SVGID_00000152245668661808152350000007370657817142826142_" gradientUnits="userSpaceOnUse" x1="716.4363" y1="653.1138" x2="776.9024" y2="653.1138">
				<stop  offset="0" style="stop-color:#FFFFFF"/>
				<stop  offset="5.027818e-03" style="stop-color:#5EB14A"/>
				<stop  offset="0.2804" style="stop-color:#7CC243"/>
				<stop  offset="0.5117" style="stop-color:#92D400"/>
				<stop  offset="0.7698" style="stop-color:#92D400"/>
				<stop  offset="1" style="stop-color:#C1E8BD"/>
			</linearGradient>
			<circle style="fill:url(#SVGID_00000152245668661808152350000007370657817142826142_);" cx="746.67" cy="653.11" r="30.23"/>
		</g>
	</g>
	<g>
		<g>
			
				<linearGradient id="SVGID_00000013174571525818014720000012118570076119739017_" gradientUnits="userSpaceOnUse" x1="132.2932" y1="681.3472" x2="500.8336" y2="681.3472">
				<stop  offset="0" style="stop-color:#FFFFFF"/>
				<stop  offset="5.027755e-03" style="stop-color:#F58634"/>
				<stop  offset="0.2804" style="stop-color:#FFA100"/>
				<stop  offset="0.5117" style="stop-color:#FFB441"/>
				<stop  offset="0.7698" style="stop-color:#FFB441"/>
				<stop  offset="1" style="stop-color:#FFD5A2"/>
			</linearGradient>
			<path style="fill:url(#SVGID_00000013174571525818014720000012118570076119739017_);" d="M375.38,831.15l-40.57-33.54
				c-0.18-0.15-0.36-0.28-0.55-0.4c-3.32-2.07-36.08-23.64-19.96-60.31c0.07-0.17,0.16-0.34,0.25-0.5l80.78-145.54
				c0.34-0.61,0.79-1.14,1.34-1.57c3.43-2.71,16.46-12.25,22.19-5.62c0,0,10.83,13.96-0.33,33.51
				c-10.54,18.47-33.91,67.82-36.48,73.24c-0.17,0.35-0.29,0.71-0.37,1.09c-0.89,3.98-4.84,26.71,18.33,36.15
				c0.39,0.16,0.75,0.35,1.09,0.6c3.94,2.88,31.71,21.64,49.65-7.32c0.09-0.14,0.17-0.28,0.24-0.43l41.96-81.4l0,0
				c0,0,31.6-71.44-31.73-130.36c-0.12-0.11-0.23-0.23-0.34-0.35c-2.83-3.21-43.83-48.28-107.11-36.86
				c-0.39,0.07-0.78,0.1-1.17,0.08c-5.91-0.36-59.19-1.42-107.18,71.88c-0.06,0.1-0.13,0.2-0.18,0.3L143.86,720.36
				c0,0-37.21,68.62,21.84,116.74c0.15,0.12,0.31,0.24,0.48,0.35l57.27,37.76c52.23,34.44,122.72,17.2,153.17-37.45l0,0
				C377.86,835.55,377.33,832.77,375.38,831.15z"/>
			
				<linearGradient id="SVGID_00000063592381996821621140000002050133002519358595_" gradientUnits="userSpaceOnUse" x1="355.9558" y1="774.3658" x2="416.4156" y2="774.3658">
				<stop  offset="0" style="stop-color:#FFFFFF"/>
				<stop  offset="5.027755e-03" style="stop-color:#F58634"/>
				<stop  offset="0.2804" style="stop-color:#FFA100"/>
				<stop  offset="0.5117" style="stop-color:#FFB441"/>
				<stop  offset="0.7698" style="stop-color:#FFB441"/>
				<stop  offset="1" style="stop-color:#FFD5A2"/>
			</linearGradient>
			<circle style="fill:url(#SVGID_00000063592381996821621140000002050133002519358595_);" cx="386.19" cy="774.37" r="30.23"/>
		</g>
	</g>
	<g>
		<g>
			
				<linearGradient id="SVGID_00000140698045129421612900000000988495202218348433_" gradientUnits="userSpaceOnUse" x1="393.28" y1="382.6861" x2="754.9441" y2="382.6861">
				<stop  offset="0" style="stop-color:#FFFFFF"/>
				<stop  offset="0" style="stop-color:#0072C6"/>
				<stop  offset="0.2804" style="stop-color:#0065A2"/>
				<stop  offset="0.5117" style="stop-color:#0072C6"/>
				<stop  offset="0.7698" style="stop-color:#0085D9"/>
				<stop  offset="1" style="stop-color:#0095EE"/>
			</linearGradient>
			<path style="fill:url(#SVGID_00000140698045129421612900000000988495202218348433_);" d="M416.63,362.32l48.77-19.82
				c0.22-0.09,0.41-0.18,0.61-0.3c3.4-1.94,37.92-20.56,62.56,11.02c0.11,0.15,0.22,0.3,0.32,0.46l89.84,140.14
				c0.38,0.59,0.63,1.23,0.75,1.92c0.76,4.31,2.98,20.3-5.58,22.2c0,0-17.42,2.92-29.35-16.18c-11.27-18.04-43.63-62.02-47.18-66.84
				c-0.23-0.31-0.48-0.59-0.78-0.84c-3.08-2.67-21.22-16.92-40.52-1.01c-0.32,0.27-0.67,0.5-1.05,0.68
				c-4.4,2.1-34.09,17.66-17.1,47.19c0.08,0.14,0.17,0.28,0.26,0.42l51.77,75.54l0,0c0,0,47.91,61.7,129.81,33.88
				c0.15-0.05,0.31-0.1,0.47-0.13c4.17-0.97,63.29-15.69,83.24-76.82c0.12-0.38,0.28-0.73,0.49-1.07
				c3.12-5.03,29.32-51.44-12.46-128.45c-0.06-0.1-0.11-0.2-0.18-0.3L623.96,211.02c0,0-42.77-65.3-113.14-36.12
				c-0.18,0.08-0.36,0.16-0.54,0.25l-60.4,32.52c-55.09,29.66-73.34,99.89-39.66,152.61l0,0
				C411.59,362.42,414.28,363.28,416.63,362.32z"/>
			
				<linearGradient id="SVGID_00000101080512303552163350000005515039416608510342_" gradientUnits="userSpaceOnUse" x1="431.2751" y1="398.764" x2="491.7327" y2="398.764">
				<stop  offset="0" style="stop-color:#FFFFFF"/>
				<stop  offset="0" style="stop-color:#0072C6"/>
				<stop  offset="0.2804" style="stop-color:#0065A2"/>
				<stop  offset="0.5117" style="stop-color:#0072C6"/>
				<stop  offset="0.7698" style="stop-color:#0085D9"/>
				<stop  offset="1" style="stop-color:#0095EE"/>
			</linearGradient>
			<circle style="fill:url(#SVGID_00000101080512303552163350000005515039416608510342_);" cx="461.5" cy="398.76" r="30.23"/>
		</g>
	</g>
</g>
</svg>
